<svg width="1600" height="900" viewBox="0 0 1600 900" fill="none" xmlns="http://www.w3.org/2000/svg">
  <defs>
    <linearGradient id="g0" x1="0" y1="0" x2="1" y2="1">
      <stop offset="0" stop-color="#0B1020"/>
      <stop offset="0.6" stop-color="#140B2D"/>
      <stop offset="1" stop-color="#0A0A0A"/>
    </linearGradient>
    <radialGradient id="r1" cx="0" cy="0" r="1" gradientUnits="userSpaceOnUse" gradientTransform="translate(420 260) rotate(25) scale(620 420)">
      <stop stop-color="#7C3AED" stop-opacity="0.75"/>
      <stop offset="1" stop-color="#7C3AED" stop-opacity="0"/>
    </radialGradient>
    <radialGradient id="r2" cx="0" cy="0" r="1" gradientUnits="userSpaceOnUse" gradientTransform="translate(1180 260) rotate(-15) scale(640 460)">
      <stop stop-color="#3B82F6" stop-opacity="0.6"/>
      <stop offset="1" stop-color="#3B82F6" stop-opacity="0"/>
    </radialGradient>
    <radialGradient id="r3" cx="0" cy="0" r="1" gradientUnits="userSpaceOnUse" gradientTransform="translate(860 820) rotate(0) scale(760 360)">
      <stop stop-color="#10B981" stop-opacity="0.28"/>
      <stop offset="1" stop-color="#10B981" stop-opacity="0"/>
    </radialGradient>
    <filter id="blur" x="-30%" y="-30%" width="160%" height="160%">
      <feGaussianBlur stdDeviation="18"/>
    </filter>
  </defs>
  <rect width="1600" height="900" fill="url(#g0)"/>
  <g filter="url(#blur)">
    <circle cx="420" cy="260" r="360" fill="url(#r1)"/>
    <circle cx="1180" cy="260" r="380" fill="url(#r2)"/>
    <circle cx="860" cy="820" r="420" fill="url(#r3)"/>
  </g>
  <g opacity="0.35">
    <path d="M0 610C220 560 380 450 560 430C820 400 990 620 1240 640C1400 652 1500 610 1600 560V900H0V610Z" fill="#FFFFFF" fill-opacity="0.06"/>
    <path d="M0 690C240 620 420 540 600 520C860 492 980 690 1240 710C1405 724 1505 690 1600 640V900H0V690Z" fill="#FFFFFF" fill-opacity="0.05"/>
  </g>
  <g opacity="0.55">
    <circle cx="210" cy="155" r="2" fill="#EDE9FE"/>
    <circle cx="330" cy="210" r="1.5" fill="#DBEAFE"/>
    <circle cx="1240" cy="160" r="2" fill="#EDE9FE"/>
    <circle cx="1320" cy="250" r="1.5" fill="#DBEAFE"/>
    <circle cx="980" cy="120" r="1.5" fill="#ECFEFF"/>
    <circle cx="1120" cy="330" r="1.5" fill="#ECFEFF"/>
  </g>
</svg>

